PathFileType	4	(X/Y/Z)	E1.trc
DataRate	CameraRate	NumFrames	NumMarkers	Units	OrigDataRate	OrigDataStartFrame	OrigNumFrames
60.0	60.0	10	23	m	60.0	1917	2190
Frame#	Time	NOSE	LEFT_EAR	RIGHT_EAR	LEFT_SHOULDER	RIGHT_SHOULDER	LEFT_ELBOW	RIGHT_ELBOW	LEFT_WRIST	RIGHT_WRIST	LEFT_INDEX	RIGHT_INDEX	LEFT_THUMB	RIGHT_THUMB	LEFT_HIP	RIGHT_HIP	LEFT_KNEE	RIGHT_KNEE	LEFT_ANKLE	RIGHT_ANKLE	LEFT_HEEL	RIGHT_HEEL	LEFT_FOOT_INDEX	RIGHT_FOOT_INDEX
		X1	Y1	Z1	X2	Y2	Z2	X3	Y3	Z3	X4	Y4	Z4	X5	Y5	Z5	X6	Y6	Z6	X7	Y7	Z7	X8	Y8	Z8	X9	Y9	Z9	X10	Y10	Z10	X11	Y11	Z11	X12	Y12	Z12	X13	Y13	Z13	X14	Y14	Z14	X15	Y15	Z15	X16	Y16	Z16	X17	Y17	Z17	X18	Y18	Z18	X19	Y19	Z19	X20	Y20	Z20	X21	Y21	Z21	X22	Y22	Z22	X23	Y23	Z23
1917	31.933333	0.280284	1.020293	0.803204	0.321274	1.041956	0.727763	0.211068	1.047129	0.736736	0.426549	0.884723	0.641892	0.085518	0.900391	0.648422	0.464980	0.673155	0.856217	0.026174	0.688255	0.779741	0.331404	0.863245	0.866368	0.195227	0.817342	0.795790	0.312846	0.935322	0.865013	0.206275	0.890312	0.776351	0.305507	0.916797	0.867004	0.189230	0.877873	0.776458	0.332881	0.538888	0.223991	0.115253	0.548826	0.244657	0.555017	0.451616	0.578084	-0.061224	0.455652	0.557715	0.517380	0.086353	0.408133	-0.033193	0.084236	0.423973	0.495473	0.033727	0.360920	-0.008446	0.024396	0.379775	0.594700	0.004306	0.483373	-0.099066	-0.015634	0.571609
1918	31.950000	0.278802	1.026787	0.799683	0.319316	1.049546	0.723346	0.209970	1.054022	0.733628	0.423669	0.891603	0.638602	0.083032	0.907195	0.643270	0.458890	0.681849	0.853928	0.024153	0.694300	0.785215	0.329486	0.871841	0.867892	0.195761	0.822268	0.795098	0.311961	0.945143	0.865128	0.208274	0.895777	0.776211	0.312230	0.929638	0.862395	0.191080	0.883914	0.774988	0.330666	0.543114	0.222747	0.114022	0.553996	0.243347	0.551119	0.451595	0.576754	-0.060928	0.455979	0.556073	0.517931	0.086392	0.406777	-0.033000	0.083204	0.421083	0.496189	0.033449	0.360129	-0.007439	0.023336	0.376174	0.594201	0.005476	0.482807	-0.100013	-0.016632	0.560974
1919	31.966667	0.275899	1.031625	0.797119	0.317144	1.055765	0.720040	0.207807	1.058879	0.731690	0.423041	0.903018	0.635834	0.079492	0.916072	0.638115	0.469227	0.693358	0.850929	0.029640	0.703035	0.796836	0.329180	0.880165	0.869307	0.195008	0.829515	0.798349	0.311189	0.954031	0.865449	0.207874	0.902074	0.776113	0.312034	0.941440	0.860125	0.190307	0.890343	0.776464	0.331462	0.551636	0.224113	0.112631	0.561787	0.241490	0.548292	0.452668	0.573283	-0.059520	0.456132	0.555280	0.517894	0.086388	0.406195	-0.033508	0.083061	0.418386	0.496832	0.033058	0.359910	-0.007316	0.021498	0.371828	0.594992	0.006661	0.482473	-0.100451	-0.016795	0.551975
1920	31.983333	0.274592	1.044945	0.794951	0.314909	1.069689	0.715440	0.206725	1.071459	0.729666	0.421648	0.915817	0.632366	0.076076	0.929033	0.634187	0.467455	0.706090	0.848172	0.027773	0.716316	0.798209	0.328690	0.894980	0.869140	0.195577	0.840118	0.800409	0.311843	0.968017	0.864339	0.208427	0.911057	0.776064	0.317088	0.958886	0.854936	0.191646	0.897426	0.776066	0.331958	0.563971	0.224061	0.111633	0.572439	0.240616	0.543721	0.453212	0.572958	-0.059111	0.457817	0.553846	0.518060	0.086338	0.404293	-0.033721	0.082894	0.415050	0.498351	0.032807	0.358105	-0.007205	0.022160	0.366807	0.597865	0.007328	0.484701	-0.101847	-0.016764	0.543626
1921	32.000000	0.271913	1.064201	0.793643	0.313680	1.087690	0.712608	0.204708	1.090184	0.726010	0.418844	0.932337	0.628943	0.074618	0.944788	0.632498	0.470282	0.715970	0.847127	0.028475	0.731647	0.800171	0.328918	0.910170	0.868321	0.195798	0.851725	0.797501	0.298306	0.991150	0.873776	0.210138	0.923573	0.777585	0.320731	0.975334	0.850366	0.195667	0.909245	0.780168	0.331989	0.578365	0.224668	0.110334	0.584718	0.240710	0.539807	0.454480	0.568787	-0.059035	0.459456	0.553560	0.517377	0.085740	0.402876	-0.033716	0.082171	0.411404	0.498480	0.032691	0.356729	-0.004232	0.024433	0.356699	0.595021	0.006339	0.487349	-0.102857	-0.016448	0.541449
1922	32.016667	0.271331	1.083188	0.790564	0.313228	1.106918	0.709379	0.203791	1.109114	0.722570	0.417797	0.950696	0.625641	0.071864	0.959246	0.631210	0.471865	0.729368	0.844963	0.022685	0.744851	0.793161	0.327707	0.923098	0.864341	0.195844	0.862110	0.794811	0.302735	1.006098	0.861570	0.209572	0.935614	0.779813	0.322447	0.991506	0.843780	0.197512	0.920585	0.780404	0.332050	0.594143	0.224612	0.110769	0.597615	0.240420	0.536430	0.456871	0.565067	-0.059923	0.459849	0.550295	0.517208	0.084663	0.401983	-0.033933	0.082431	0.410980	0.498236	0.031293	0.356676	-0.004758	0.023740	0.354544	0.594417	0.006434	0.490961	-0.103981	-0.016147	0.541158
1923	32.033333	0.270520	1.103422	0.788304	0.312247	1.126817	0.706780	0.202178	1.129563	0.719584	0.416563	0.966097	0.620207	0.070618	0.975851	0.630961	0.468500	0.743391	0.842886	0.016404	0.764259	0.782907	0.326379	0.938726	0.858534	0.195407	0.880359	0.795836	0.305489	1.022312	0.851353	0.208680	0.951217	0.779902	0.321275	1.007232	0.838715	0.196013	0.936322	0.780348	0.330988	0.610580	0.223708	0.111123	0.612466	0.238236	0.533440	0.460807	0.560374	-0.059233	0.461644	0.551563	0.516575	0.084136	0.401928	-0.033077	0.080050	0.405461	0.497588	0.029767	0.356485	-0.004805	0.022600	0.350862	0.592407	0.007948	0.493926	-0.105688	-0.017249	0.540445
1924	32.050000	0.269737	1.126832	0.781379	0.311988	1.149195	0.699529	0.201599	1.149769	0.714682	0.415719	0.985585	0.615970	0.070680	0.991298	0.631542	0.471950	0.754604	0.839429	0.019927	0.776757	0.785727	0.326542	0.954142	0.854037	0.194558	0.895068	0.793334	0.312193	1.033952	0.839882	0.207812	0.968076	0.778017	0.320607	1.023626	0.830273	0.195087	0.950631	0.779179	0.332890	0.628846	0.222276	0.111835	0.627347	0.236477	0.530368	0.466601	0.556753	-0.056719	0.465105	0.547844	0.516271	0.083862	0.400288	-0.033125	0.079317	0.405037	0.497322	0.028588	0.355035	-0.004981	0.020946	0.347741	0.587624	0.010493	0.503817	-0.106389	-0.015916	0.551258
1925	32.066667	0.268558	1.145699	0.777140	0.311019	1.168437	0.694771	0.200875	1.169926	0.709209	0.413780	1.004479	0.611400	0.069651	1.007910	0.627186	0.475523	0.769346	0.835724	0.012180	0.780258	0.779586	0.327693	0.964057	0.851142	0.194696	0.913143	0.793574	0.311647	1.041515	0.835555	0.208940	0.984460	0.779945	0.317587	1.033476	0.828965	0.195164	0.969891	0.781359	0.333345	0.644094	0.220451	0.110682	0.640929	0.236411	0.528065	0.472433	0.553702	-0.053577	0.467636	0.544746	0.515784	0.085041	0.400100	-0.033305	0.079186	0.405038	0.497063	0.028085	0.354811	-0.005077	0.020261	0.345614	0.585363	0.012784	0.508182	-0.108458	-0.016201	0.554268
1926	32.083333	0.268018	1.163856	0.773473	0.311830	1.187153	0.689444	0.200033	1.188471	0.704975	0.412974	1.023560	0.607251	0.069197	1.025986	0.622493	0.478538	0.788530	0.829924	0.015027	0.791603	0.784007	0.341020	0.993443	0.859979	0.195438	0.927714	0.792203	0.309656	1.057047	0.830706	0.210590	1.000965	0.781022	0.316779	1.050217	0.824543	0.195176	0.985398	0.781435	0.334946	0.659143	0.220576	0.111269	0.655442	0.235944	0.526131	0.474968	0.548232	-0.049346	0.469158	0.539169	0.516038	0.083655	0.399524	-0.033892	0.079150	0.404384	0.497258	0.025824	0.354620	-0.007561	0.016790	0.346679	0.583003	0.012346	0.509805	-0.107993	-0.015872	0.554385
